# xmcd CD database file
#
# Track frame offsets:
#	150
#	16865
#	38925
#
# Disc length: 739 seconds
#
# Revision: 0
# Processed by: cddbd v1.5PL3 Copyright (c) Steve Scherf et al.
# Submitted via: CDex 1.50
#
DISCID=1902e103
DTITLE=渡辺美里 - 夏の歌
DYEAR=1997
DGENRE=JPop
TTITLE0=夏の歌
TTITLE1=ランナー
TTITLE2=夏の歌[Original Backing Track]
EXTD=YEAR: 1997
EXTT0=
EXTT1=
EXTT2=
PLAYORDER=
